<svg xmlns="http://www.w3.org/2000/svg" xmlns:xlink="http://www.w3.org/1999/xlink" width="90" zoomAndPan="magnify" viewBox="0 0 1125 1124.99995" height="90" preserveAspectRatio="xMidYMid meet" version="1.0"><defs><g/><clipPath id="id1"><path d="M 487 553 L 787 553 L 787 637.972656 L 487 637.972656 Z M 487 553 " clip-rule="nonzero"/></clipPath><clipPath id="id2"><path d="M 597 334.972656 L 694 334.972656 L 694 467 L 597 467 Z M 597 334.972656 " clip-rule="nonzero"/></clipPath><clipPath id="id3"><path d="M 570 334.972656 L 672 334.972656 L 672 551 L 570 551 Z M 570 334.972656 " clip-rule="nonzero"/></clipPath></defs><rect x="-112.5" width="1350" fill="#ffffff" y="-112.499995" height="1349.99994" fill-opacity="1"/><rect x="-112.5" width="1350" fill="#ffffff" y="-112.499995" height="1349.99994" fill-opacity="1"/><rect x="-112.5" width="1350" fill="#ffffff" y="-112.499995" height="1349.99994" fill-opacity="1"/><rect x="-112.5" width="1350" fill="#ffffff" y="-112.499995" height="1349.99994" fill-opacity="1"/><g fill="#a70000" fill-opacity="1"><g transform="translate(371.427386, 734.664877)"><g><path d="M 29.46875 -17.421875 L 12.59375 -17.421875 L 12.59375 0 L 3.8125 0 L 3.8125 -42.640625 L 31.578125 -42.640625 L 31.578125 -35.53125 L 12.59375 -35.53125 L 12.59375 -24.515625 L 29.46875 -24.515625 Z M 29.46875 -17.421875 "/></g></g></g><g fill="#a70000" fill-opacity="1"><g transform="translate(404.285637, 734.664877)"><g><path d="M 38.84375 -20.359375 C 38.84375 -16.160156 38.097656 -12.476562 36.609375 -9.3125 C 35.128906 -6.144531 33.003906 -3.703125 30.234375 -1.984375 C 27.472656 -0.273438 24.304688 0.578125 20.734375 0.578125 C 17.203125 0.578125 14.050781 -0.269531 11.28125 -1.96875 C 8.507812 -3.664062 6.359375 -6.085938 4.828125 -9.234375 C 3.304688 -12.390625 2.535156 -16.019531 2.515625 -20.125 L 2.515625 -22.234375 C 2.515625 -26.429688 3.269531 -30.125 4.78125 -33.3125 C 6.300781 -36.507812 8.441406 -38.960938 11.203125 -40.671875 C 13.960938 -42.378906 17.117188 -43.234375 20.671875 -43.234375 C 24.234375 -43.234375 27.394531 -42.378906 30.15625 -40.671875 C 32.914062 -38.960938 35.050781 -36.507812 36.5625 -33.3125 C 38.082031 -30.125 38.84375 -26.441406 38.84375 -22.265625 Z M 29.9375 -22.296875 C 29.9375 -26.765625 29.132812 -30.160156 27.53125 -32.484375 C 25.925781 -34.804688 23.640625 -35.96875 20.671875 -35.96875 C 17.722656 -35.96875 15.445312 -34.816406 13.84375 -32.515625 C 12.25 -30.222656 11.441406 -26.863281 11.421875 -22.4375 L 11.421875 -20.359375 C 11.421875 -16.003906 12.21875 -12.625 13.8125 -10.21875 C 15.414062 -7.820312 17.722656 -6.625 20.734375 -6.625 C 23.679688 -6.625 25.945312 -7.78125 27.53125 -10.09375 C 29.113281 -12.40625 29.914062 -15.773438 29.9375 -20.203125 Z M 29.9375 -22.296875 "/></g></g></g><g fill="#a70000" fill-opacity="1"><g transform="translate(445.695232, 734.664877)"><g><path d="M 38.84375 -20.359375 C 38.84375 -16.160156 38.097656 -12.476562 36.609375 -9.3125 C 35.128906 -6.144531 33.003906 -3.703125 30.234375 -1.984375 C 27.472656 -0.273438 24.304688 0.578125 20.734375 0.578125 C 17.203125 0.578125 14.050781 -0.269531 11.28125 -1.96875 C 8.507812 -3.664062 6.359375 -6.085938 4.828125 -9.234375 C 3.304688 -12.390625 2.535156 -16.019531 2.515625 -20.125 L 2.515625 -22.234375 C 2.515625 -26.429688 3.269531 -30.125 4.78125 -33.3125 C 6.300781 -36.507812 8.441406 -38.960938 11.203125 -40.671875 C 13.960938 -42.378906 17.117188 -43.234375 20.671875 -43.234375 C 24.234375 -43.234375 27.394531 -42.378906 30.15625 -40.671875 C 32.914062 -38.960938 35.050781 -36.507812 36.5625 -33.3125 C 38.082031 -30.125 38.84375 -26.441406 38.84375 -22.265625 Z M 29.9375 -22.296875 C 29.9375 -26.765625 29.132812 -30.160156 27.53125 -32.484375 C 25.925781 -34.804688 23.640625 -35.96875 20.671875 -35.96875 C 17.722656 -35.96875 15.445312 -34.816406 13.84375 -32.515625 C 12.25 -30.222656 11.441406 -26.863281 11.421875 -22.4375 L 11.421875 -20.359375 C 11.421875 -16.003906 12.21875 -12.625 13.8125 -10.21875 C 15.414062 -7.820312 17.722656 -6.625 20.734375 -6.625 C 23.679688 -6.625 25.945312 -7.78125 27.53125 -10.09375 C 29.113281 -12.40625 29.914062 -15.773438 29.9375 -20.203125 Z M 29.9375 -22.296875 "/></g></g></g><g fill="#a70000" fill-opacity="1"><g transform="translate(487.104827, 734.664877)"><g><path d="M 3.8125 0 L 3.8125 -42.640625 L 16.921875 -42.640625 C 20.671875 -42.640625 24.023438 -41.796875 26.984375 -40.109375 C 29.941406 -38.421875 32.25 -36.019531 33.90625 -32.90625 C 35.570312 -29.789062 36.40625 -26.253906 36.40625 -22.296875 L 36.40625 -20.328125 C 36.40625 -16.359375 35.585938 -12.832031 33.953125 -9.75 C 32.328125 -6.664062 30.03125 -4.273438 27.0625 -2.578125 C 24.09375 -0.878906 20.742188 -0.0195312 17.015625 0 Z M 12.59375 -35.53125 L 12.59375 -7.0625 L 16.84375 -7.0625 C 20.28125 -7.0625 22.90625 -8.179688 24.71875 -10.421875 C 26.53125 -12.671875 27.457031 -15.882812 27.5 -20.0625 L 27.5 -22.3125 C 27.5 -26.65625 26.597656 -29.941406 24.796875 -32.171875 C 23.003906 -34.410156 20.378906 -35.53125 16.921875 -35.53125 Z M 12.59375 -35.53125 "/></g></g></g><g fill="#a70000" fill-opacity="1"><g transform="translate(526.083731, 734.664877)"><g><path d="M 2.078125 -11.484375 C 2.078125 -13.453125 2.628906 -15.273438 3.734375 -16.953125 C 4.835938 -18.640625 6.863281 -20.503906 9.8125 -22.546875 C 8.539062 -24.242188 7.539062 -25.835938 6.8125 -27.328125 C 6.09375 -28.828125 5.734375 -30.390625 5.734375 -32.015625 C 5.734375 -35.335938 6.78125 -38.035156 8.875 -40.109375 C 10.976562 -42.191406 13.8125 -43.234375 17.375 -43.234375 C 20.550781 -43.234375 23.160156 -42.285156 25.203125 -40.390625 C 27.242188 -38.492188 28.265625 -36.128906 28.265625 -33.296875 C 28.265625 -29.898438 26.546875 -26.90625 23.109375 -24.3125 L 19.828125 -21.9375 L 27.1875 -13.390625 C 28.332031 -15.648438 28.90625 -18.148438 28.90625 -20.890625 L 36.109375 -20.890625 C 36.109375 -15.335938 34.832031 -10.84375 32.28125 -7.40625 L 38.65625 0 L 29.0625 0 L 26.859375 -2.515625 C 23.710938 -0.453125 20.097656 0.578125 16.015625 0.578125 C 11.796875 0.578125 8.414062 -0.523438 5.875 -2.734375 C 3.34375 -4.953125 2.078125 -7.867188 2.078125 -11.484375 Z M 16.4375 -6.203125 C 18.46875 -6.203125 20.390625 -6.769531 22.203125 -7.90625 L 13.796875 -17.625 L 13.1875 -17.1875 C 11.445312 -15.707031 10.578125 -13.960938 10.578125 -11.953125 C 10.578125 -10.253906 11.117188 -8.867188 12.203125 -7.796875 C 13.285156 -6.734375 14.695312 -6.203125 16.4375 -6.203125 Z M 13.328125 -32.125 C 13.328125 -30.664062 14.1875 -28.820312 15.90625 -26.59375 L 18.15625 -28.09375 C 19.3125 -28.832031 20.109375 -29.550781 20.546875 -30.25 C 20.984375 -30.957031 21.203125 -31.796875 21.203125 -32.765625 C 21.203125 -33.742188 20.835938 -34.59375 20.109375 -35.3125 C 19.390625 -36.039062 18.46875 -36.40625 17.34375 -36.40625 C 16.125 -36.40625 15.148438 -36.015625 14.421875 -35.234375 C 13.691406 -34.453125 13.328125 -33.414062 13.328125 -32.125 Z M 13.328125 -32.125 "/></g></g></g><g fill="#a70000" fill-opacity="1"><g transform="translate(565.443347, 734.664877)"><g><path d="M 29.46875 -18.484375 L 12.59375 -18.484375 L 12.59375 -7.0625 L 32.390625 -7.0625 L 32.390625 0 L 3.8125 0 L 3.8125 -42.640625 L 32.328125 -42.640625 L 32.328125 -35.53125 L 12.59375 -35.53125 L 12.59375 -25.359375 L 29.46875 -25.359375 Z M 29.46875 -18.484375 "/></g></g></g><g fill="#a70000" fill-opacity="1"><g transform="translate(599.18016, 734.664877)"><g><path d="M 38.484375 0 L 29.703125 0 L 12.59375 -28.0625 L 12.59375 0 L 3.8125 0 L 3.8125 -42.640625 L 12.59375 -42.640625 L 29.734375 -14.53125 L 29.734375 -42.640625 L 38.484375 -42.640625 Z M 38.484375 0 "/></g></g></g><g fill="#a70000" fill-opacity="1"><g transform="translate(641.526889, 734.664877)"><g><path d="M 21 -42.640625 L 29.78125 -42.640625 L 29.78125 -13.125 C 29.78125 -10.40625 29.179688 -8.003906 27.984375 -5.921875 C 26.785156 -3.847656 25.09375 -2.242188 22.90625 -1.109375 C 20.71875 0.015625 18.25 0.578125 15.5 0.578125 C 10.988281 0.578125 7.472656 -0.566406 4.953125 -2.859375 C 2.429688 -5.148438 1.171875 -8.394531 1.171875 -12.59375 L 10.015625 -12.59375 C 10.015625 -10.5 10.453125 -8.953125 11.328125 -7.953125 C 12.210938 -6.960938 13.601562 -6.46875 15.5 -6.46875 C 17.175781 -6.46875 18.507812 -7.039062 19.5 -8.1875 C 20.5 -9.34375 21 -10.988281 21 -13.125 Z M 21 -42.640625 "/></g></g></g><g fill="#a70000" fill-opacity="1"><g transform="translate(675.029419, 734.664877)"><g><path d="M 38.84375 -20.359375 C 38.84375 -16.160156 38.097656 -12.476562 36.609375 -9.3125 C 35.128906 -6.144531 33.003906 -3.703125 30.234375 -1.984375 C 27.472656 -0.273438 24.304688 0.578125 20.734375 0.578125 C 17.203125 0.578125 14.050781 -0.269531 11.28125 -1.96875 C 8.507812 -3.664062 6.359375 -6.085938 4.828125 -9.234375 C 3.304688 -12.390625 2.535156 -16.019531 2.515625 -20.125 L 2.515625 -22.234375 C 2.515625 -26.429688 3.269531 -30.125 4.78125 -33.3125 C 6.300781 -36.507812 8.441406 -38.960938 11.203125 -40.671875 C 13.960938 -42.378906 17.117188 -43.234375 20.671875 -43.234375 C 24.234375 -43.234375 27.394531 -42.378906 30.15625 -40.671875 C 32.914062 -38.960938 35.050781 -36.507812 36.5625 -33.3125 C 38.082031 -30.125 38.84375 -26.441406 38.84375 -22.265625 Z M 29.9375 -22.296875 C 29.9375 -26.765625 29.132812 -30.160156 27.53125 -32.484375 C 25.925781 -34.804688 23.640625 -35.96875 20.671875 -35.96875 C 17.722656 -35.96875 15.445312 -34.816406 13.84375 -32.515625 C 12.25 -30.222656 11.441406 -26.863281 11.421875 -22.4375 L 11.421875 -20.359375 C 11.421875 -16.003906 12.21875 -12.625 13.8125 -10.21875 C 15.414062 -7.820312 17.722656 -6.625 20.734375 -6.625 C 23.679688 -6.625 25.945312 -7.78125 27.53125 -10.09375 C 29.113281 -12.40625 29.914062 -15.773438 29.9375 -20.203125 Z M 29.9375 -22.296875 "/></g></g></g><g fill="#a70000" fill-opacity="1"><g transform="translate(716.439014, 734.664877)"><g><path d="M 18.515625 -23.4375 L 27.390625 -42.640625 L 37 -42.640625 L 22.984375 -15.46875 L 22.984375 0 L 14.0625 0 L 14.0625 -15.46875 L 0.0625 -42.640625 L 9.6875 -42.640625 Z M 18.515625 -23.4375 "/></g></g></g><g fill="#a70000" fill-opacity="1"><g transform="translate(386.28676, 785.66492)"><g><path d="M 4.34375 0 L 4.34375 -21 L 19.984375 -21 L 19.984375 -17.875 L 7.59375 -17.875 L 7.59375 -11.875 L 18.625 -11.875 L 18.625 -8.765625 L 7.59375 -8.765625 L 7.59375 0 Z M 4.34375 0 "/></g></g></g><g fill="#a70000" fill-opacity="1"><g transform="translate(412.287693, 785.66492)"><g><path d="M 20.515625 0 L 18.265625 -5.046875 L 7.5 -5.046875 L 5.25 0 L 1.890625 0 L 11.1875 -21 L 14.765625 -21 L 24.03125 0 Z M 11.25 -13.5625 L 8.875 -8.15625 L 16.890625 -8.15625 L 14.453125 -13.6875 C 13.898438 -14.925781 13.375 -16.242188 12.875 -17.640625 C 12.613281 -16.898438 12.347656 -16.1875 12.078125 -15.5 C 11.804688 -14.820312 11.53125 -14.175781 11.25 -13.5625 Z M 11.25 -13.5625 "/></g></g></g><g fill="#a70000" fill-opacity="1"><g transform="translate(441.197462, 785.66492)"><g><path d="M 4.921875 -6.421875 C 5.960938 -5.203125 7.046875 -4.257812 8.171875 -3.59375 C 9.304688 -2.9375 10.691406 -2.609375 12.328125 -2.609375 C 13.210938 -2.609375 14.054688 -2.722656 14.859375 -2.953125 C 15.671875 -3.179688 16.34375 -3.53125 16.875 -4 C 17.40625 -4.46875 17.671875 -5.054688 17.671875 -5.765625 C 17.671875 -6.765625 17.140625 -7.484375 16.078125 -7.921875 C 15.015625 -8.359375 13.523438 -8.71875 11.609375 -9 C 9.242188 -9.363281 7.363281 -10.03125 5.96875 -11 C 4.570312 -11.96875 3.875 -13.378906 3.875 -15.234375 C 3.875 -16.492188 4.25 -17.570312 5 -18.46875 C 5.75 -19.375 6.757812 -20.070312 8.03125 -20.5625 C 9.3125 -21.050781 10.722656 -21.296875 12.265625 -21.296875 C 14.191406 -21.296875 15.851562 -20.972656 17.25 -20.328125 C 18.644531 -19.691406 19.742188 -18.785156 20.546875 -17.609375 L 18.328125 -15.296875 C 17.671875 -16.222656 16.820312 -16.96875 15.78125 -17.53125 C 14.738281 -18.101562 13.539062 -18.390625 12.1875 -18.390625 C 10.78125 -18.390625 9.609375 -18.132812 8.671875 -17.625 C 7.734375 -17.113281 7.265625 -16.398438 7.265625 -15.484375 C 7.265625 -14.398438 7.769531 -13.632812 8.78125 -13.1875 C 9.789062 -12.738281 11.113281 -12.382812 12.75 -12.125 C 13.832031 -11.957031 14.867188 -11.742188 15.859375 -11.484375 C 16.847656 -11.222656 17.734375 -10.878906 18.515625 -10.453125 C 19.296875 -10.023438 19.914062 -9.476562 20.375 -8.8125 C 20.832031 -8.15625 21.0625 -7.335938 21.0625 -6.359375 C 21.0625 -5.015625 20.703125 -3.84375 19.984375 -2.84375 C 19.265625 -1.84375 18.238281 -1.066406 16.90625 -0.515625 C 15.570312 0.0234375 14 0.296875 12.1875 0.296875 C 10.238281 0.296875 8.484375 -0.0195312 6.921875 -0.65625 C 5.367188 -1.300781 4 -2.34375 2.8125 -3.78125 Z M 4.921875 -6.421875 "/></g></g></g><g fill="#a70000" fill-opacity="1"><g transform="translate(468.128014, 785.66492)"><g><path d="M 9.203125 0 L 9.203125 -17.875 L 2.125 -17.875 L 2.125 -21 L 19.6875 -21 L 19.6875 -17.875 L 12.453125 -17.875 L 12.453125 0 Z M 9.203125 0 "/></g></g></g><g fill="#a70000" fill-opacity="1"><g transform="translate(492.929407, 785.66492)"><g/></g></g><g fill="#a70000" fill-opacity="1"><g transform="translate(507.774716, 785.66492)"><g><path d="M 13.921875 -21 C 15.722656 -21 17.300781 -20.722656 18.65625 -20.171875 C 20.019531 -19.617188 21.160156 -18.859375 22.078125 -17.890625 C 22.992188 -16.921875 23.679688 -15.800781 24.140625 -14.53125 C 24.609375 -13.257812 24.84375 -11.914062 24.84375 -10.5 C 24.84375 -8.582031 24.429688 -6.828125 23.609375 -5.234375 C 22.785156 -3.640625 21.5625 -2.367188 19.9375 -1.421875 C 18.320312 -0.472656 16.316406 0 13.921875 0 L 4.34375 0 L 4.34375 -21 Z M 13.765625 -3.125 C 15.566406 -3.125 17.03125 -3.457031 18.15625 -4.125 C 19.289062 -4.789062 20.125 -5.675781 20.65625 -6.78125 C 21.1875 -7.894531 21.453125 -9.132812 21.453125 -10.5 C 21.453125 -11.820312 21.1875 -13.039062 20.65625 -14.15625 C 20.125 -15.28125 19.289062 -16.179688 18.15625 -16.859375 C 17.03125 -17.535156 15.566406 -17.875 13.765625 -17.875 L 7.59375 -17.875 L 7.59375 -3.125 Z M 13.765625 -3.125 "/></g></g></g><g fill="#a70000" fill-opacity="1"><g transform="translate(538.393816, 785.66492)"><g><path d="M 4.34375 -21 L 19.921875 -21 L 19.921875 -17.875 L 7.59375 -17.875 L 7.59375 -12.328125 L 18.265625 -12.328125 L 18.265625 -9.203125 L 7.59375 -9.203125 L 7.59375 -3.125 L 19.921875 -3.125 L 19.921875 0 L 4.34375 0 Z M 4.34375 -21 "/></g></g></g><g fill="#a70000" fill-opacity="1"><g transform="translate(564.994495, 785.66492)"><g><path d="M 19.765625 -3.125 L 19.765625 0 L 4.34375 0 L 4.34375 -21 L 7.59375 -21 L 7.59375 -3.125 Z M 19.765625 -3.125 "/></g></g></g><g fill="#a70000" fill-opacity="1"><g transform="translate(590.965417, 785.66492)"><g><path d="M 16.5 0 L 4.140625 0 L 4.140625 -3.125 L 8.703125 -3.125 L 8.703125 -17.875 L 4.140625 -17.875 L 4.140625 -21 L 16.5 -21 L 16.5 -17.875 L 11.9375 -17.875 L 11.9375 -3.125 L 16.5 -3.125 Z M 16.5 0 "/></g></g></g><g fill="#a70000" fill-opacity="1"><g transform="translate(614.627253, 785.66492)"><g><path d="M 23.578125 -21 L 14.546875 0 L 10.984375 0 L 1.859375 -21 L 5.546875 -21 L 10.890625 -8.375 C 11.191406 -7.632812 11.523438 -6.84375 11.890625 -6 C 12.265625 -5.15625 12.613281 -4.34375 12.9375 -3.5625 C 13.207031 -4.34375 13.515625 -5.148438 13.859375 -5.984375 C 14.203125 -6.816406 14.519531 -7.601562 14.8125 -8.34375 L 19.765625 -21 Z M 23.578125 -21 "/></g></g></g><g fill="#a70000" fill-opacity="1"><g transform="translate(643.057224, 785.66492)"><g><path d="M 4.34375 -21 L 19.921875 -21 L 19.921875 -17.875 L 7.59375 -17.875 L 7.59375 -12.328125 L 18.265625 -12.328125 L 18.265625 -9.203125 L 7.59375 -9.203125 L 7.59375 -3.125 L 19.921875 -3.125 L 19.921875 0 L 4.34375 0 Z M 4.34375 -21 "/></g></g></g><g fill="#a70000" fill-opacity="1"><g transform="translate(669.657903, 785.66492)"><g><path d="M 21.90625 -14.4375 C 21.90625 -13.050781 21.472656 -11.789062 20.609375 -10.65625 C 19.742188 -9.53125 18.65625 -8.726562 17.34375 -8.25 L 22.953125 0.03125 L 18.953125 0 L 13.703125 -7.796875 L 7.59375 -7.796875 L 7.59375 0 L 4.34375 0 L 4.34375 -21 L 15.15625 -21 C 16.332031 -21 17.429688 -20.71875 18.453125 -20.15625 C 19.472656 -19.59375 20.300781 -18.820312 20.9375 -17.84375 C 21.582031 -16.863281 21.90625 -15.726562 21.90625 -14.4375 Z M 14.40625 -17.875 L 7.59375 -17.875 L 7.59375 -10.921875 L 14.796875 -10.921875 C 15.492188 -10.921875 16.117188 -11.082031 16.671875 -11.40625 C 17.234375 -11.738281 17.679688 -12.175781 18.015625 -12.71875 C 18.347656 -13.257812 18.515625 -13.835938 18.515625 -14.453125 C 18.515625 -15.117188 18.320312 -15.710938 17.9375 -16.234375 C 17.5625 -16.753906 17.0625 -17.15625 16.4375 -17.4375 C 15.820312 -17.726562 15.144531 -17.875 14.40625 -17.875 Z M 14.40625 -17.875 "/></g></g></g><g fill="#a70000" fill-opacity="1"><g transform="translate(698.807599, 785.66492)"><g><path d="M 23.375 -21 L 14.34375 -8.609375 L 14.34375 0 L 11.09375 0 L 11.09375 -8.484375 L 1.46875 -21 L 5.703125 -21 L 12.78125 -11.484375 L 19.46875 -21 Z M 23.375 -21 "/></g></g></g><g fill="#a70000" fill-opacity="1"><g transform="translate(726.637785, 785.66492)"><g><path d="M 8.90625 -0.15625 C 8.90625 0.6875 8.664062 1.492188 8.1875 2.265625 C 7.707031 3.035156 7.097656 3.726562 6.359375 4.34375 C 5.617188 4.96875 4.859375 5.441406 4.078125 5.765625 L 2.765625 4.234375 C 3.597656 3.753906 4.285156 3.25 4.828125 2.71875 C 5.367188 2.1875 5.640625 1.71875 5.640625 1.3125 C 5.640625 0.957031 5.515625 0.660156 5.265625 0.421875 C 5.015625 0.179688 4.722656 -0.0390625 4.390625 -0.25 C 4.066406 -0.457031 3.78125 -0.703125 3.53125 -0.984375 C 3.28125 -1.265625 3.15625 -1.632812 3.15625 -2.09375 C 3.15625 -2.738281 3.378906 -3.21875 3.828125 -3.53125 C 4.273438 -3.851562 4.816406 -4.015625 5.453125 -4.015625 C 6.035156 -4.015625 6.585938 -3.847656 7.109375 -3.515625 C 7.628906 -3.191406 8.054688 -2.738281 8.390625 -2.15625 C 8.734375 -1.582031 8.90625 -0.914062 8.90625 -0.15625 Z M 8.90625 -0.15625 "/></g></g></g><g fill="#a70000" fill-opacity="1"><g transform="translate(388.501603, 826.164917)"><g><path d="M 4.34375 -21 L 19.921875 -21 L 19.921875 -17.875 L 7.59375 -17.875 L 7.59375 -12.328125 L 18.265625 -12.328125 L 18.265625 -9.203125 L 7.59375 -9.203125 L 7.59375 -3.125 L 19.921875 -3.125 L 19.921875 0 L 4.34375 0 Z M 4.34375 -21 "/></g></g></g><g fill="#a70000" fill-opacity="1"><g transform="translate(415.102287, 826.164917)"><g><path d="M 21.71875 -21 L 24.953125 -21 L 24.953125 0 L 21.8125 0 L 7.046875 -16.3125 C 7.171875 -15.039062 7.289062 -13.773438 7.40625 -12.515625 C 7.53125 -11.253906 7.59375 -9.992188 7.59375 -8.734375 L 7.59375 0 L 4.34375 0 L 4.34375 -21 L 7.4375 -21 L 22.203125 -4.296875 C 22.078125 -5.273438 21.972656 -6.328125 21.890625 -7.453125 C 21.816406 -8.585938 21.769531 -9.722656 21.75 -10.859375 C 21.726562 -11.992188 21.71875 -13.070312 21.71875 -14.09375 Z M 21.71875 -21 "/></g></g></g><g fill="#a70000" fill-opacity="1"><g transform="translate(447.40072, 826.164917)"><g><path d="M 10.109375 0.296875 C 8.972656 0.296875 7.972656 0.128906 7.109375 -0.203125 C 6.242188 -0.546875 5.515625 -0.960938 4.921875 -1.453125 C 4.335938 -1.941406 3.863281 -2.425781 3.5 -2.90625 C 3.144531 -3.382812 2.898438 -3.753906 2.765625 -4.015625 L 4.859375 -6.234375 C 5.296875 -5.660156 5.742188 -5.109375 6.203125 -4.578125 C 6.671875 -4.046875 7.210938 -3.609375 7.828125 -3.265625 C 8.453125 -2.929688 9.210938 -2.765625 10.109375 -2.765625 C 11.109375 -2.765625 11.960938 -2.984375 12.671875 -3.421875 C 13.378906 -3.859375 13.921875 -4.453125 14.296875 -5.203125 C 14.679688 -5.953125 14.875 -6.785156 14.875 -7.703125 L 14.875 -17.875 L 10.296875 -17.875 L 10.296875 -21 L 21.78125 -21 L 21.78125 -17.875 L 18.125 -17.875 L 18.125 -7.40625 C 18.125 -6.09375 17.8125 -4.847656 17.1875 -3.671875 C 16.570312 -2.503906 15.664062 -1.550781 14.46875 -0.8125 C 13.28125 -0.0703125 11.828125 0.296875 10.109375 0.296875 Z M 10.109375 0.296875 "/></g></g></g><g fill="#a70000" fill-opacity="1"><g transform="translate(473.671543, 826.164917)"><g><path d="M 26.046875 -10.5 C 26.046875 -8.976562 25.757812 -7.5625 25.1875 -6.25 C 24.613281 -4.945312 23.804688 -3.800781 22.765625 -2.8125 C 21.722656 -1.832031 20.492188 -1.066406 19.078125 -0.515625 C 17.660156 0.0234375 16.113281 0.296875 14.4375 0.296875 C 12.707031 0.296875 11.132812 0.0234375 9.71875 -0.515625 C 8.300781 -1.066406 7.078125 -1.832031 6.046875 -2.8125 C 5.015625 -3.800781 4.210938 -4.945312 3.640625 -6.25 C 3.078125 -7.5625 2.796875 -8.976562 2.796875 -10.5 C 2.796875 -12.019531 3.078125 -13.429688 3.640625 -14.734375 C 4.210938 -16.046875 5.015625 -17.191406 6.046875 -18.171875 C 7.078125 -19.160156 8.300781 -19.925781 9.71875 -20.46875 C 11.132812 -21.019531 12.707031 -21.296875 14.4375 -21.296875 C 16.113281 -21.296875 17.660156 -21.019531 19.078125 -20.46875 C 20.492188 -19.925781 21.722656 -19.160156 22.765625 -18.171875 C 23.804688 -17.191406 24.613281 -16.046875 25.1875 -14.734375 C 25.757812 -13.429688 26.046875 -12.019531 26.046875 -10.5 Z M 22.734375 -10.5 C 22.734375 -11.957031 22.378906 -13.257812 21.671875 -14.40625 C 20.960938 -15.5625 19.984375 -16.472656 18.734375 -17.140625 C 17.484375 -17.816406 16.050781 -18.15625 14.4375 -18.15625 C 12.769531 -18.15625 11.3125 -17.816406 10.0625 -17.140625 C 8.8125 -16.472656 7.835938 -15.5625 7.140625 -14.40625 C 6.441406 -13.257812 6.09375 -11.957031 6.09375 -10.5 C 6.09375 -9.039062 6.441406 -7.734375 7.140625 -6.578125 C 7.835938 -5.429688 8.8125 -4.519531 10.0625 -3.84375 C 11.3125 -3.175781 12.769531 -2.84375 14.4375 -2.84375 C 16.050781 -2.84375 17.484375 -3.175781 18.734375 -3.84375 C 19.984375 -4.519531 20.960938 -5.4375 21.671875 -6.59375 C 22.378906 -7.757812 22.734375 -9.0625 22.734375 -10.5 Z M 22.734375 -10.5 "/></g></g></g><g fill="#a70000" fill-opacity="1"><g transform="translate(505.490144, 826.164917)"><g><path d="M 23.375 -21 L 14.34375 -8.609375 L 14.34375 0 L 11.09375 0 L 11.09375 -8.484375 L 1.46875 -21 L 5.703125 -21 L 12.78125 -11.484375 L 19.46875 -21 Z M 23.375 -21 "/></g></g></g><g fill="#a70000" fill-opacity="1"><g transform="translate(533.32033, 826.164917)"><g/></g></g><g fill="#a70000" fill-opacity="1"><g transform="translate(548.165639, 826.164917)"><g><path d="M 4.921875 -6.421875 C 5.960938 -5.203125 7.046875 -4.257812 8.171875 -3.59375 C 9.304688 -2.9375 10.691406 -2.609375 12.328125 -2.609375 C 13.210938 -2.609375 14.054688 -2.722656 14.859375 -2.953125 C 15.671875 -3.179688 16.34375 -3.53125 16.875 -4 C 17.40625 -4.46875 17.671875 -5.054688 17.671875 -5.765625 C 17.671875 -6.765625 17.140625 -7.484375 16.078125 -7.921875 C 15.015625 -8.359375 13.523438 -8.71875 11.609375 -9 C 9.242188 -9.363281 7.363281 -10.03125 5.96875 -11 C 4.570312 -11.96875 3.875 -13.378906 3.875 -15.234375 C 3.875 -16.492188 4.25 -17.570312 5 -18.46875 C 5.75 -19.375 6.757812 -20.070312 8.03125 -20.5625 C 9.3125 -21.050781 10.722656 -21.296875 12.265625 -21.296875 C 14.191406 -21.296875 15.851562 -20.972656 17.25 -20.328125 C 18.644531 -19.691406 19.742188 -18.785156 20.546875 -17.609375 L 18.328125 -15.296875 C 17.671875 -16.222656 16.820312 -16.96875 15.78125 -17.53125 C 14.738281 -18.101562 13.539062 -18.390625 12.1875 -18.390625 C 10.78125 -18.390625 9.609375 -18.132812 8.671875 -17.625 C 7.734375 -17.113281 7.265625 -16.398438 7.265625 -15.484375 C 7.265625 -14.398438 7.769531 -13.632812 8.78125 -13.1875 C 9.789062 -12.738281 11.113281 -12.382812 12.75 -12.125 C 13.832031 -11.957031 14.867188 -11.742188 15.859375 -11.484375 C 16.847656 -11.222656 17.734375 -10.878906 18.515625 -10.453125 C 19.296875 -10.023438 19.914062 -9.476562 20.375 -8.8125 C 20.832031 -8.15625 21.0625 -7.335938 21.0625 -6.359375 C 21.0625 -5.015625 20.703125 -3.84375 19.984375 -2.84375 C 19.265625 -1.84375 18.238281 -1.066406 16.90625 -0.515625 C 15.570312 0.0234375 14 0.296875 12.1875 0.296875 C 10.238281 0.296875 8.484375 -0.0195312 6.921875 -0.65625 C 5.367188 -1.300781 4 -2.34375 2.8125 -3.78125 Z M 4.921875 -6.421875 "/></g></g></g><g fill="#a70000" fill-opacity="1"><g transform="translate(575.096182, 826.164917)"><g><path d="M 19.765625 -3.125 L 19.765625 0 L 4.34375 0 L 4.34375 -21 L 7.59375 -21 L 7.59375 -3.125 Z M 19.765625 -3.125 "/></g></g></g><g fill="#a70000" fill-opacity="1"><g transform="translate(601.067105, 826.164917)"><g><path d="M 26.046875 -10.5 C 26.046875 -8.976562 25.757812 -7.5625 25.1875 -6.25 C 24.613281 -4.945312 23.804688 -3.800781 22.765625 -2.8125 C 21.722656 -1.832031 20.492188 -1.066406 19.078125 -0.515625 C 17.660156 0.0234375 16.113281 0.296875 14.4375 0.296875 C 12.707031 0.296875 11.132812 0.0234375 9.71875 -0.515625 C 8.300781 -1.066406 7.078125 -1.832031 6.046875 -2.8125 C 5.015625 -3.800781 4.210938 -4.945312 3.640625 -6.25 C 3.078125 -7.5625 2.796875 -8.976562 2.796875 -10.5 C 2.796875 -12.019531 3.078125 -13.429688 3.640625 -14.734375 C 4.210938 -16.046875 5.015625 -17.191406 6.046875 -18.171875 C 7.078125 -19.160156 8.300781 -19.925781 9.71875 -20.46875 C 11.132812 -21.019531 12.707031 -21.296875 14.4375 -21.296875 C 16.113281 -21.296875 17.660156 -21.019531 19.078125 -20.46875 C 20.492188 -19.925781 21.722656 -19.160156 22.765625 -18.171875 C 23.804688 -17.191406 24.613281 -16.046875 25.1875 -14.734375 C 25.757812 -13.429688 26.046875 -12.019531 26.046875 -10.5 Z M 22.734375 -10.5 C 22.734375 -11.957031 22.378906 -13.257812 21.671875 -14.40625 C 20.960938 -15.5625 19.984375 -16.472656 18.734375 -17.140625 C 17.484375 -17.816406 16.050781 -18.15625 14.4375 -18.15625 C 12.769531 -18.15625 11.3125 -17.816406 10.0625 -17.140625 C 8.8125 -16.472656 7.835938 -15.5625 7.140625 -14.40625 C 6.441406 -13.257812 6.09375 -11.957031 6.09375 -10.5 C 6.09375 -9.039062 6.441406 -7.734375 7.140625 -6.578125 C 7.835938 -5.429688 8.8125 -4.519531 10.0625 -3.84375 C 11.3125 -3.175781 12.769531 -2.84375 14.4375 -2.84375 C 16.050781 -2.84375 17.484375 -3.175781 18.734375 -3.84375 C 19.984375 -4.519531 20.960938 -5.4375 21.671875 -6.59375 C 22.378906 -7.757812 22.734375 -9.0625 22.734375 -10.5 Z M 22.734375 -10.5 "/></g></g></g><g fill="#a70000" fill-opacity="1"><g transform="translate(632.885705, 826.164917)"><g><path d="M 32.734375 -21 L 24.9375 0 L 22.6875 0 L 17.0625 -13.109375 L 11.484375 0 L 9.15625 0 L 1.859375 -21 L 5.375 -21 L 9.65625 -8.3125 C 9.84375 -7.769531 10.015625 -7.210938 10.171875 -6.640625 C 10.328125 -6.078125 10.476562 -5.535156 10.625 -5.015625 C 10.800781 -5.535156 10.992188 -6.078125 11.203125 -6.640625 C 11.410156 -7.210938 11.632812 -7.78125 11.875 -8.34375 L 15.6875 -17.375 L 18.71875 -17.375 L 22.4375 -8.375 C 22.914062 -7.1875 23.328125 -6.09375 23.671875 -5.09375 C 23.804688 -5.613281 23.960938 -6.160156 24.140625 -6.734375 C 24.328125 -7.304688 24.519531 -7.878906 24.71875 -8.453125 L 29.25 -21 Z M 32.734375 -21 "/></g></g></g><g fill="#a70000" fill-opacity="1"><g transform="translate(670.462034, 826.164917)"><g><path d="M 19.765625 -3.125 L 19.765625 0 L 4.34375 0 L 4.34375 -21 L 7.59375 -21 L 7.59375 -3.125 Z M 19.765625 -3.125 "/></g></g></g><g fill="#a70000" fill-opacity="1"><g transform="translate(696.432974, 826.164917)"><g><path d="M 23.375 -21 L 14.34375 -8.609375 L 14.34375 0 L 11.09375 0 L 11.09375 -8.484375 L 1.46875 -21 L 5.703125 -21 L 12.78125 -11.484375 L 19.46875 -21 Z M 23.375 -21 "/></g></g></g><g fill="#a70000" fill-opacity="1"><g transform="translate(724.26316, 826.164917)"><g><path d="M 6.125 0.328125 C 5.195312 0.328125 4.519531 0.125 4.09375 -0.28125 C 3.664062 -0.695312 3.453125 -1.242188 3.453125 -1.921875 C 3.453125 -2.503906 3.664062 -3.023438 4.09375 -3.484375 C 4.519531 -3.941406 5.195312 -4.171875 6.125 -4.171875 C 7.019531 -4.171875 7.679688 -3.960938 8.109375 -3.546875 C 8.546875 -3.140625 8.765625 -2.597656 8.765625 -1.921875 C 8.765625 -1.359375 8.546875 -0.84375 8.109375 -0.375 C 7.679688 0.09375 7.019531 0.328125 6.125 0.328125 Z M 6.125 0.328125 "/></g></g></g><g clip-path="url(#id1)"><path fill="#a70000" d="M 702.824219 595.941406 C 702.824219 572.773438 721.574219 553.914062 744.8125 553.914062 C 767.960938 553.914062 786.800781 572.683594 786.800781 595.941406 C 786.800781 619.113281 768.050781 637.972656 744.8125 637.972656 C 721.664062 637.972656 702.824219 619.113281 702.824219 595.941406 Z M 529.75 637.972656 C 552.898438 637.972656 571.742188 619.203125 571.742188 595.941406 C 571.742188 572.773438 552.988281 553.914062 529.75 553.914062 C 506.515625 553.914062 487.761719 572.683594 487.761719 595.941406 C 487.761719 619.113281 506.605469 637.972656 529.75 637.972656 Z M 529.75 637.972656 " fill-opacity="1" fill-rule="nonzero"/></g><path fill="#ff5252" d="M 658.949219 550.949219 C 658.949219 550.949219 655.003906 561.277344 665.410156 561.277344 C 688.917969 561.277344 688.738281 575.019531 688.738281 575.019531 L 638.046875 575.019531 L 644.324219 550.949219 Z M 658.949219 550.949219 " fill-opacity="1" fill-rule="nonzero"/><path fill="#ff5252" d="M 691.878906 604.292969 C 682.90625 580.765625 691.96875 553.644531 714.398438 540.535156 C 736.828125 527.421875 764.910156 532.898438 780.96875 552.207031 Z M 691.878906 604.292969 " fill-opacity="1" fill-rule="nonzero"/><path fill="#a70000" d="M 607.089844 522.933594 C 587.980469 556.878906 613.011719 575.019531 613.011719 575.019531 L 666.039062 575.019531 C 672.675781 572.503906 687.390625 557.597656 696.992188 535.503906 C 706.59375 513.414062 673.394531 444.082031 673.394531 444.082031 C 687.390625 426.390625 723.90625 434.472656 723.90625 434.472656 L 723.90625 472.101562 L 702.824219 466.175781 L 733.058594 528.140625 L 677.074219 595.941406 L 481.121094 595.941406 L 521.675781 522.933594 Z M 607.089844 522.933594 " fill-opacity="1" fill-rule="nonzero"/><path fill="#ffbaba" d="M 723.90625 595.941406 C 723.90625 584.359375 733.238281 575.019531 744.8125 575.019531 C 756.386719 575.019531 765.71875 584.359375 765.71875 595.941406 C 765.71875 607.527344 756.386719 616.867188 744.8125 616.867188 C 733.238281 616.867188 723.90625 607.527344 723.90625 595.941406 Z M 529.75 616.867188 C 541.324219 616.867188 550.65625 607.527344 550.65625 595.941406 C 550.65625 584.359375 541.324219 575.019531 529.75 575.019531 C 518.179688 575.019531 508.847656 584.359375 508.847656 595.941406 C 508.847656 607.527344 518.179688 616.867188 529.75 616.867188 Z M 529.75 616.867188 " fill-opacity="1" fill-rule="nonzero"/><path fill="#ff5252" d="M 621.085938 522.933594 L 502.476562 522.933594 L 502.476562 500.121094 L 621.085938 500.121094 Z M 536.390625 534.425781 C 504.449219 534.425781 470.804688 561.996094 470.804688 595.941406 L 586.457031 595.941406 C 586.457031 554.273438 578.738281 534.425781 536.390625 534.425781 Z M 652.578125 440.402344 C 643.964844 436 636.96875 392.445312 611.398438 393.972656 C 585.738281 395.410156 574.703125 448.484375 571.742188 462.492188 L 611.488281 466.175781 C 614.449219 451.449219 623.242188 432.589844 623.242188 432.589844 C 623.242188 432.589844 628.355469 458.003906 641.273438 460.25 C 648.8125 461.503906 663.078125 463.300781 673.753906 464.558594 L 676.355469 445.519531 C 667.652344 444.53125 657.246094 442.738281 652.578125 440.402344 Z M 652.578125 440.402344 " fill-opacity="1" fill-rule="nonzero"/><g clip-path="url(#id2)"><path fill="#ffbaba" d="M 649.082031 360.746094 C 649.082031 375.023438 637.507812 386.519531 623.332031 386.519531 C 609.066406 386.519531 597.582031 374.933594 597.582031 360.746094 C 597.582031 346.554688 609.066406 334.972656 623.332031 334.972656 C 637.507812 334.972656 649.082031 346.554688 649.082031 360.746094 Z M 690.351562 447.046875 C 690.351562 447.046875 684.070312 446.597656 676.445312 445.609375 L 673.84375 464.648438 C 681.558594 465.546875 687.390625 466.175781 687.390625 466.175781 C 694.75 459.53125 695.824219 458.09375 690.351562 447.046875 Z M 690.351562 447.046875 " fill-opacity="1" fill-rule="nonzero"/></g><path fill="#ffbaba" d="M 548.144531 500.121094 L 455.375 500.121094 L 455.375 410.136719 L 548.144531 410.136719 Z M 490.09375 528.140625 C 490.09375 526.882812 489.019531 525.804688 487.761719 525.804688 L 416.34375 525.804688 C 415.089844 525.804688 414.011719 526.882812 414.011719 528.140625 C 414.011719 529.398438 415.089844 530.476562 416.34375 530.476562 L 487.761719 530.476562 C 489.109375 530.476562 490.09375 529.398438 490.09375 528.140625 Z M 466.589844 547.269531 C 466.589844 546.011719 465.511719 544.933594 464.253906 544.933594 L 355.960938 544.933594 C 354.707031 544.933594 353.628906 546.011719 353.628906 547.269531 C 353.628906 548.527344 354.707031 549.605469 355.960938 549.605469 L 464.253906 549.605469 C 465.511719 549.605469 466.589844 548.617188 466.589844 547.269531 Z M 490.09375 580.496094 C 490.09375 579.238281 489.019531 578.160156 487.761719 578.160156 L 398.667969 578.160156 C 397.414062 578.160156 396.335938 579.238281 396.335938 580.496094 C 396.335938 581.753906 397.414062 582.832031 398.667969 582.832031 L 487.761719 582.832031 C 489.109375 582.832031 490.09375 581.753906 490.09375 580.496094 Z M 511.179688 566.308594 C 511.179688 565.050781 510.101562 563.972656 508.847656 563.972656 L 428.816406 563.972656 C 427.558594 563.972656 426.484375 565.050781 426.484375 566.308594 C 426.484375 567.566406 427.558594 568.640625 428.816406 568.640625 L 508.847656 568.640625 C 510.191406 568.640625 511.179688 567.566406 511.179688 566.308594 Z M 446.042969 478.75 C 446.042969 477.492188 444.964844 476.414062 443.710938 476.414062 L 340.53125 476.414062 C 339.273438 476.414062 338.199219 477.492188 338.199219 478.75 C 338.199219 480.003906 339.273438 481.082031 340.53125 481.082031 L 443.621094 481.082031 C 444.964844 481.082031 446.042969 480.003906 446.042969 478.75 Z M 441.824219 458.09375 C 441.824219 456.835938 440.75 455.757812 439.492188 455.757812 L 371.394531 455.757812 C 370.136719 455.757812 369.0625 456.835938 369.0625 458.09375 C 369.0625 459.351562 370.136719 460.429688 371.394531 460.429688 L 439.492188 460.429688 C 440.75 460.429688 441.824219 459.351562 441.824219 458.09375 Z M 441.824219 458.09375 " fill-opacity="1" fill-rule="nonzero"/><g clip-path="url(#id3)"><path fill="#a70000" d="M 665.230469 351.046875 L 597.582031 362.003906 C 597.582031 361.554688 597.492188 361.195312 597.492188 360.746094 C 597.492188 346.554688 609.066406 334.972656 623.332031 334.972656 C 634.1875 334.972656 643.429688 341.707031 647.195312 351.136719 L 664.78125 348.351562 Z M 571.742188 462.492188 C 568.78125 476.503906 572.457031 500.121094 586.457031 500.121094 L 621.085938 500.121094 C 641.722656 500.121094 647.644531 520.058594 638.761719 550.949219 L 661.550781 550.949219 C 672.585938 508.203125 676.265625 495.632812 661.550781 488.265625 C 646.835938 480.902344 608.527344 480.902344 611.488281 466.175781 Z M 571.742188 462.492188 " fill-opacity="1" fill-rule="nonzero"/></g></svg>